<svg xmlns="http://www.w3.org/2000/svg" viewBox="0 0 200 200" fill="none"><path d="M62.21 35.21 L68.90 31.71 L75.90 28.87 L83.14 26.72 L90.55 25.28 L98.07 24.57 L105.62 24.59 L113.14 25.33 L120.55 26.80 L127.78 28.98 L134.77 31.85 L141.44 35.38 L147.74 39.54 L153.62 44.29 L159.00 49.59 L163.85 55.38 L168.11 61.62 L171.75 68.23 L174.74 75.17 L177.04 82.36 L178.63 89.75 L179.50 97.25 L179.64 104.80 L179.05 112.33 L177.74 119.77 L175.71 127.04 L172.99 134.09 L169.60 140.84 L165.57 147.23 L160.95 153.20 L155.76 158.69 L150.07 163.66 L143.93 168.05 L137.39 171.83 L130.52 174.96 L123.37 177.41 L116.03 179.16 L108.54 180.18 L101.00 180.48 L93.46 180.05 L85.99 178.89 L78.68 177.02 L71.58 174.45 L64.76 171.20 L58.29 167.30 L52.22 162.80 L46.62 157.74 L41.53 152.15 L37.01 146.10 Z" fill="#C98B52"/><path d="M185.92 87.43 L187.26 89.48 L188.53 91.57 L189.74 93.70 L190.88 95.87 L191.95 98.08 L192.95 100.31 L193.88 102.58 L194.74 104.88 L195.52 107.20 L196.24 109.54 L196.87 111.91 L197.44 114.29 L197.93 116.69 L198.34 119.11 L198.68 121.54 L198.94 123.97 L199.12 126.42 L199.23 128.86 L199.26 131.31 L199.21 133.76 L199.09 136.21 L198.88 138.65 L198.61 141.09 L198.25 143.51 L197.82 145.93 L197.32 148.32 L196.74 150.70 L196.08 153.06 L195.35 155.40 L194.55 157.72 L193.68 160.01 L192.73 162.27 L191.72 164.50 L190.63 166.70 L189.48 168.86 L188.26 170.98 L186.97 173.07 L185.62 175.11 L184.20 177.11 L182.72 179.06 L181.18 180.97 L179.58 182.83 L177.93 184.63 L176.22 186.39 L174.45 188.09 L172.63 189.73 L170.77 191.32 L168.85 192.84 Z" fill="#000" opacity="0.40"/><path d="M180.88 80.43 L182.22 82.48 L183.49 84.57 L184.70 86.70 L185.84 88.87 L186.91 91.08 L187.91 93.31 L188.84 95.58 L189.70 97.88 L190.48 100.20 L191.20 102.54 L191.83 104.91 L192.40 107.29 L192.89 109.69 L193.30 112.11 L193.64 114.54 L193.90 116.97 L194.08 119.42 L194.19 121.86 L194.22 124.31 L194.17 126.76 L194.05 129.21 L193.84 131.65 L193.57 134.09 L193.21 136.51 L192.78 138.93 L192.28 141.32 L191.70 143.70 L191.04 146.06 L190.31 148.40 L189.51 150.72 L188.64 153.01 L187.69 155.27 L186.68 157.50 L185.59 159.70 L184.44 161.86 L183.22 163.98 L181.93 166.07 L180.58 168.11 L179.16 170.11 L177.68 172.06 L176.14 173.97 L174.54 175.83 L172.89 177.63 L171.18 179.39 L169.41 181.09 L167.59 182.73 L165.73 184.32 L163.81 185.84 Z" fill="#EBA564"/><path d="M166.34 58.87 L167.68 60.92 L168.95 63.02 L170.16 65.15 L171.30 67.32 L172.37 69.52 L173.37 71.76 L174.30 74.03 L175.16 76.32 L175.94 78.64 L176.66 80.99 L177.29 83.35 L177.86 85.74 L178.35 88.14 L178.76 90.55 L179.10 92.98 L179.36 95.42 L179.54 97.86 L179.65 100.31 L179.68 102.76 L179.63 105.21 L179.51 107.66 L179.31 110.10 L179.03 112.53 L178.67 114.96 L178.24 117.37 L177.74 119.77 L177.16 122.15 L176.50 124.51 L175.78 126.85 L174.97 129.16 L174.10 131.45 L173.15 133.71 L172.14 135.94 L171.05 138.14 L169.90 140.30 L168.68 142.43 L167.39 144.51 L166.04 146.55 L164.62 148.55 L163.14 150.51 L161.60 152.42 L160.01 154.27 L158.35 156.08 L156.64 157.83 L154.87 159.53 L153.06 161.18 L151.19 162.76 L149.27 164.29 Z" fill="#9A7E67"/></svg>